<?xml version="1.0" encoding="UTF-8"?>
<svg id="Layer_2" data-name="Layer 2" xmlns="http://www.w3.org/2000/svg" viewBox="0 0 471.7 491.55">
  <defs>
    <style>
      .cls-1 {
        fill: #864a64;
      }
    </style>
  </defs>
  <g id="Capa_1" data-name="Capa 1">
    <path class="cls-1" d="M467.3,289.65l-18.3-37.5c-2-4-2-8.7,0-12.7l18.3-37.5c10.2-20.9,2.1-45.8-18.4-56.7l-36.9-19.6c-4-2.1-6.7-5.9-7.5-10.3l-7.2-41.1c-4-22.9-25.2-38.3-48.2-35l-41.3,5.8c-4.5,.6-8.9-.8-12.1-3.9l-30-29c-16.7-16.2-42.9-16.2-59.6,0l-30,29c-3.2,3.1-7.7,4.6-12.1,3.9l-41.3-5.8c-23-3.3-44.2,12.1-48.2,35l-7.2,41.1c-.8,4.4-3.5,8.2-7.5,10.3l-37,19.5c-20.5,10.9-28.6,35.8-18.4,56.7l18.3,37.5c2,4,2,8.7,0,12.7l-18.3,37.5c-10.2,20.9-2.1,45.8,18.4,56.7l36.9,19.6c4,2.1,6.7,5.9,7.5,10.3l7.2,41.1c3.7,20.8,21.5,35.5,42.1,35.5,2,0,4.1-.1,6.1-.4l41.3-5.8c4.5-.6,8.9,.8,12.1,3.9l30,29c8.4,8.1,19.1,12.1,29.8,12.1s21.4-4,29.8-12.1l30-29c3.2-3.1,7.7-4.6,12.1-3.9l41.3,5.8c23,3.3,44.2-12.1,48.2-35l7.2-41.1c.8-4.4,3.5-8.2,7.5-10.3l36.9-19.6c20.6-10.9,28.7-35.8,18.5-56.7Zm-142.4,38.3c-.4,3.1-2.2,6-5.3,8.5-9,7.5-19.4,13.3-31.1,17.1-11.7,3.9-24.3,5.8-37.7,5.8-21.8,0-40.4-4.6-55.9-13.8-15.5-9.2-27.4-22.3-35.7-39.3s-12.4-37.2-12.4-60.7,4.1-43.4,12.4-60.3c8.3-17,20.2-30.1,35.7-39.3s34.1-13.8,55.9-13.8c13,0,25.3,1.9,37.1,5.7,11.7,3.8,21.9,9.1,30.5,16,3.6,2.5,5.6,5.5,6.1,8.8,.5,3.4-.1,6.3-1.7,9-1.7,2.6-4,4.3-7.1,5-3,.7-6.4-.3-10.2-3-14.9-11.9-32.9-17.9-54.1-17.9-24.9,0-44,7.9-57.2,23.6-13.2,15.7-19.8,37.8-19.8,66.3s6.6,50.9,19.8,66.6,32.3,23.6,57.2,23.6c21.2,0,39.4-6.1,54.7-18.2,3.8-2.5,7.2-3.5,10.2-2.8,3,.6,5.3,2.2,6.9,4.7,1.5,2.4,2.1,5.2,1.7,8.4Z"/>
  </g>
</svg>