<?xml version="1.0" encoding="UTF-8"?>
<svg id="Layer_2" data-name="Layer 2" xmlns="http://www.w3.org/2000/svg" viewBox="0 0 459.1 459.1">
  <defs>
    <style>
      .cls-1 {
        fill: #864a64;
      }
    </style>
  </defs>
  <g id="Layer_1-2" data-name="Layer 1">
    <g>
      <circle class="cls-1" cx="229.5" cy="311" r="15.4"/>
      <circle class="cls-1" cx="229.5" cy="148" r="15.4"/>
      <path class="cls-1" d="M446.6,12.4c-8-8-18.6-12.4-29.9-12.4H255.8c-11.3,0-21.9,4.4-29.9,12.4L12.4,226c-8,8-12.4,18.6-12.4,29.9s4.4,21.9,12.4,29.9l160.9,160.9c8,8,18.6,12.4,29.9,12.4s21.9-4.4,29.9-12.4l213.6-213.6c8-8,12.4-18.6,12.4-29.9V42.3c-.1-11.3-4.5-21.9-12.5-29.9h0ZM229.5,105.8c23.3,0,42.3,19,42.3,42.3s-19,42.3-42.3,42.3-42.3-19-42.3-42.3,19-42.3,42.3-42.3Zm0,247.4c-23.3,0-42.3-19-42.3-42.3s19-42.3,42.3-42.3,42.3,19,42.3,42.3c-.1,23.4-19,42.3-42.3,42.3Zm86.4-110.2H143.1c-7.4,0-13.4-6-13.4-13.4s6-13.4,13.4-13.4h172.8c7.4,0,13.4,6,13.4,13.4,.1,7.3-6,13.4-13.4,13.4Zm57.6-144.1c-7.4,0-13.4-6-13.4-13.4s6-13.4,13.4-13.4,13.4,6,13.4,13.4-6,13.4-13.4,13.4Z"/>
    </g>
  </g>
</svg>