<?xml version="1.0" encoding="utf-8"?>
<svg xmlns="http://www.w3.org/2000/svg" data-name="Layer 2" id="Layer_2" viewBox="0 0 101.2 87.45">
  <defs>
    <style>
      .cls-1 {
        fill: #864b64;
      }
    </style>
  </defs>
  <g data-name="Layer 1" id="Layer_1-2">
    <path class="cls-1" d="M101.2,30.5c0-8.4-2.9-16-8-21.7C88,3.1,80.8,0,72.9,0c-5.9,0-11.2,1.8-15.9,5.5-2.5,1.9-4.6,4.2-6.4,6.7-1.8-2.6-4-4.8-6.4-6.7C39.5,1.9,34.1,0,28.3,0c-7.8,0-15,3.1-20.3,8.8C2.8,14.4,0,22.1,0,30.5s3.2,16.4,10,24.7c4.5,5.4,24.2,21.7,34.4,30,3.6,3,8.9,3,12.5,0,10.2-8.3,29.9-24.6,34.4-30h0c6.7-8.3,9.9-16.1,9.9-24.7Zm-38.1,17.7h-8.1v8.1c0,2.5-2,4.5-4.5,4.5s-4.5-2-4.5-4.5v-8.1h-8.1c-2.5,0-4.5-2-4.5-4.5s2-4.5,4.5-4.5h8.1v-8.1c0-2.5,2-4.5,4.5-4.5s4.5,2,4.5,4.5v8.1h8.1c2.5,0,4.5,2,4.5,4.5s-2,4.5-4.5,4.5Z"/>
  </g>
</svg>