<?xml version="1.0" encoding="utf-8"?>
<svg xmlns="http://www.w3.org/2000/svg" data-name="Layer 2" id="Layer_2" viewBox="0 0 105.7 338.5">
  <defs>
    <style>
      .cls-1 {
        fill: #541c3c;
      }
    </style>
  </defs>
  <g data-name="Layer 1" id="Layer_1-2">
    <g>
      <path class="cls-1" d="M63.9,43.5c8.3-8.3,14.6-17.6,17.7-26.1,2.6-7,2.5-12.8-.1-15.4-1.3-1.3-3.5-2-6.1-2-8.5,0-22.5,6.7-35.3,19.6-8.3,8.3-14.6,17.6-17.7,26.1-2.6,7-2.5,12.8,.1,15.4,5.6,5.6,24.5-.7,41.4-17.6Z"/>
      <path class="cls-1" d="M28.5,73c-2,0-4-.3-6-.8v44.8h60.7V36c-3.7,5.1-7.8,10-12.2,14.5-14.5,14.4-30.5,22.5-42.5,22.5h0Z"/>
      <path class="cls-1" d="M10.5,126.9H95.1v74.1H10.5V126.9Z"/>
      <path class="cls-1" d="M0,322.2c0,9,7.3,16.3,16.2,16.3H89.5c9,0,16.2-7.3,16.2-16.3v-111.3H0v111.3Zm15.5-81.3c0-2.7,2.2-4.9,4.9-4.9s4.9,2.2,4.9,4.9v69.2c0,2.7-2.2,4.9-4.9,4.9s-4.9-2.2-4.9-4.9v-69.2Z"/>
    </g>
  </g>
</svg>